<svg width="691" height="207" viewBox="0 0 691 207" fill="none" xmlns="http://www.w3.org/2000/svg">
<path class="svg-italy__i" d="M28 1.5H1V206H28V1.5Z" stroke="black"/>
<path class="svg-italy__t" d="M122 24V206H148.5V23.5H149H214.5V1.5H56V24H57H122Z" stroke="black"/>
<path class="svg-italy__a" d="M214.5 206L291.5 1.5L292 1H315.5L394 206H366L346.5 152.5H261L241.5 206H214.5Z" stroke="black"/>
<path d="M421.5 1V206H545.5V184H448.5V1H421.5Z" stroke="black"/>
<path d="M591.5 129.5V206H618.5V130L689.5 1H658.5L605 104L552 1H521L591.5 129.5Z" stroke="black"/>
<path d="M338.5 129.5H269L304 34L338.5 129.5Z" stroke="black"/>
</svg>
