<svg width="690" height="205" viewBox="0 0 690 205" fill="none" xmlns="http://www.w3.org/2000/svg">
<path d="M27.7344 205H0.734375V0.25H27.7344V205ZM214.484 22.4688H148.672V205H121.812V22.4688H56.1406V0.25H214.484V22.4688ZM346.672 151.562H260.891L241.625 205H213.781L291.969 0.25H315.594L393.922 205H366.219L346.672 151.562ZM269.047 129.344H338.656L303.781 33.5781L269.047 129.344ZM448.625 182.922H545.656V205H421.484V0.25H448.625V182.922ZM605.141 103.047L658.578 0.25H689.234L618.641 128.641V205H591.641V128.641L521.047 0.25H551.984L605.141 103.047Z" fill="white"/>
</svg>
